# xmcd CD database file generated by Grip 3.2.0
# 
# Track frame offsets:
#       150
#       10255
#       23852
#       31640
#       46667
#       65771
#       78088
#       87995
#       107051
#       124888
#       133281
#       145038
#       168708
#       192246
#       207446
#       226694
#       243469
#       253503
#       276830
#       288623
# 
# Disc length: 4040 seconds
# 
# Revision: 2
# Processed by: cddbd v1.5.1PL2 Copyright (c) Steve Scherf et al.
# Submitted via: Grip 3.2.0
# 
DISCID=1a0fc614
DTITLE=Various Artist - 1. velký trampský zpěvník  A - Bed
DYEAR=2005
DGENRE=Country
TTITLE0=Admirálská krčma
TTITLE1=Ahoj kamaráde
TTITLE2=Alabama
TTITLE3=Anglická sobota
TTITLE4=Anita
TTITLE5=Arizona
TTITLE6=Armáda
TTITLE7=Ascalona
TTITLE8=Až budeš velký
TTITLE9=Až jaro na Aljašku
TTITLE10=Až pojedu domu
TTITLE11=Až přijde ta chvíle
TTITLE12=Až světýlka v dáli vzplanou
TTITLE13=Až ztichnou bílé skály
TTITLE14=Babička Mery
TTITLE15=Bál v lapáku
TTITLE16=Balada Mexico Kida
TTITLE17=Balalajko zpívej
TTITLE18=Bar U zlaté plachty
TTITLE19=Bedna od whisky
EXTD=Vložila Agina
EXTT0=
EXTT1=
EXTT2=
EXTT3=
EXTT4=
EXTT5=
EXTT6=
EXTT7=
EXTT8=
EXTT9=
EXTT10=
EXTT11=
EXTT12=
EXTT13=
EXTT14=
EXTT15=
EXTT16=
EXTT17=
EXTT18=
EXTT19=
PLAYORDER=
